<?xml version="1.0" encoding="UTF-8" standalone="no"?>
<svg width="214px" height="223px" viewBox="0 0 214 223" version="1.1" xmlns="http://www.w3.org/2000/svg" xmlns:xlink="http://www.w3.org/1999/xlink">
    <!-- Generator: Sketch 48.2 (47327) - http://www.bohemiancoding.com/sketch -->
    <title>Page 1</title>
    <desc>Created with Sketch.</desc>
    <defs>
        <polygon id="path-1" points="0 0 214 0 214 223 0 223"></polygon>
    </defs>
    <g id="LARGE-SCREEN" stroke="none" stroke-width="1" fill="none" fill-rule="evenodd" transform="translate(-1053.000000, -336.000000)" opacity="0.576958955">
        <g id="Page-1" transform="translate(1053.000000, 336.000000)">
            <mask id="mask-2" fill="white">
                <use xlink:href="#path-1"></use>
            </mask>
            <g id="Clip-2"></g>
            <path d="M105.989072,180.751583 L128.008327,180.751583 L128.008327,173.564 L106.39103,173.564 C106.254678,176.001278 106.12572,178.307484 105.989072,180.751583 Z M106.052664,213.711921 L128.115101,213.711921 L128.115101,206.458209 L106.052664,206.458209 L106.052664,213.711921 Z M106.025157,197.104387 L128.120721,197.104387 L128.120721,189.899308 L106.025157,189.899308 L106.025157,197.104387 Z M45.0387486,210.179217 L59.2427442,210.179217 L59.2427442,167.608845 L45.0387486,167.608845 L45.0387486,210.179217 Z M123.933732,153.65892 C114.274909,153.65892 104.91186,153.646465 95.5491071,153.696877 C95.0885857,153.698953 94.478698,154.147028 94.1947541,154.563076 C88.2440599,163.290305 80.0017021,168.648818 69.8699346,171.197299 C68.6738211,171.498289 68.3511308,171.976314 68.3570463,173.181461 C68.4085111,183.805965 68.4040745,194.430765 68.3638491,205.055269 C68.360004,206.042754 68.6619901,206.552806 69.5250611,206.993171 C74.5239519,209.544914 79.8147724,211.236389 85.3055367,212.237218 C89.0603985,212.92134 92.8726405,213.289052 96.7733193,213.813338 L96.7733193,197.679679 C92.6576122,200.835478 88.1757359,202.484251 83.0984648,202.9688 C82.7467885,199.915901 82.4104925,196.993777 82.0659148,194.003448 C82.5140137,193.905293 82.839366,193.809806 83.1715212,193.764732 C91.3869635,192.648252 95.788389,187.190398 96.7162347,179.402614 C97.2430097,174.982656 97.2944745,170.428069 96.2917978,165.98172 C96.1776287,165.474336 96.1447977,164.948567 96.0483751,164.243687 C98.6293064,164.243687 101.041055,164.336505 103.443338,164.224116 C108.252341,163.999337 112.945697,163.196598 117.212249,160.777409 C120.091321,159.144946 122.441252,156.987307 123.933732,153.65892 Z M108.3112,110.604592 L108.3112,110.609929 C119.003757,110.609929 185.893831,110.618232 196.586388,110.606074 C201.59918,110.60044 204.691506,107.502467 204.703337,102.487943 C204.716647,96.75727 204.708069,22.8219555 204.701266,17.0912829 C204.695647,12.4026586 201.508673,9.1771721 196.82567,9.17479976 C175.341767,9.16501388 38.5053779,9.1659035 17.0214759,9.17450322 C12.315698,9.17657901 9.15061132,12.3561015 9.13730145,17.0752696 C9.12132961,22.8554648 9.12399159,96.8403017 9.13641413,102.6202 C9.14676625,107.442565 12.2917402,110.600737 17.0779689,110.602812 C27.7705255,110.608447 97.618348,110.604592 108.3112,110.604592 Z M35.94101,158.623921 L68.2644687,158.623921 L68.2644687,162.290366 C73.7380781,160.863406 78.3412221,158.347544 82.2599431,154.579683 C84.8476773,152.091992 86.9257914,149.220577 88.4318769,145.96425 C88.911328,144.927243 89.4789199,144.522463 90.655808,144.549152 C94.4491205,144.634853 98.2456865,144.580882 102.041069,144.580882 L103.74,144.580882 L103.74,119.829418 C103.24576,119.805398 102.769563,119.762696 102.29307,119.762399 C93.6179931,119.756468 25.7879467,119.78464 17.1128703,119.744903 C8.85720267,119.707242 2.36790245,114.668402 0.49653497,106.851854 C0.189224901,105.568717 0.0493233964,104.217079 0.038379727,102.895688 C-0.00983157369,97.064784 -0.0101273485,23.0283487 0.0235909844,17.1971484 C0.0809713054,7.32912284 7.13076487,0.0875691302 16.9546308,0.0534668093 C38.4944342,-0.0209652129 175.386725,-0.0138482068 196.926529,0.0510944739 C206.479761,0.0795624983 213.698146,7.21080262 213.904597,16.7564871 C214.036217,22.8320379 214.028822,97.1196442 213.899864,103.195195 C213.699329,112.666744 206.632676,119.63459 197.149247,119.733635 C188.86903,119.820225 124.390409,119.753206 116.1096,119.753799 L113.18557,119.753799 L113.18557,144.579696 L123.623464,144.579696 L134.140627,144.579696 C135.017895,152.12906 132.890978,158.582702 127.525326,164.256142 L137.193615,164.256142 L137.193615,222.939416 L135.616247,222.939416 C122.948506,222.940899 110.278103,223.103107 97.6142072,222.890487 C88.2020599,222.731837 79.0223916,220.968302 70.2366954,217.432929 C69.6972021,217.216157 69.148244,217.022515 68.4670745,216.766896 C68.4129477,217.68321 68.365328,218.485653 68.3138631,219.355707 L35.94101,219.355707 L35.94101,158.623921 Z" id="Fill-1" fill="#BFBFBF" mask="url(#mask-2)"></path>
        </g>
    </g>
</svg>